<?xml version="1.0" encoding="iso-8859-1"?>
<!-- Generator: Adobe Illustrator 19.0.0, SVG Export Plug-In . SVG Version: 6.00 Build 0)  -->
<svg version="1.1" id="Capa_1" xmlns="http://www.w3.org/2000/svg" xmlns:xlink="http://www.w3.org/1999/xlink" x="0px" y="0px"
	 viewBox="0 0 512 512" style="enable-background:new 0 0 512 512;" xml:space="preserve">
<path style="fill:#FFD400;" d="M506.246,512H5.754V204.93L256,0l250.246,204.93V512z"/>
<polygon style="fill:#FF8900;" points="256,0 256,512 506.246,512 506.246,204.93 "/>
<path style="fill:#FFF5CB;" d="M393.135,420.911H120.867V125.62H348.09c24.837,0,45.044,20.207,45.044,45.044V420.911z"/>
<path style="fill:#FFDBA9;" d="M393.135,170.665c0-24.837-20.207-45.044-45.044-45.044h-91.089v295.29h136.134V170.665z"/>
<path style="fill:#57555C;" d="M346.089,215.709H133.88c-24.837,0-45.044-20.207-45.044-45.044s20.207-45.044,45.044-45.044h212.208
	v30.03c-8.279,0-15.015,6.736-15.015,15.015s6.736,15.015,15.015,15.015V215.709z"/>
<g>
	<rect x="175.922" y="235.732" style="fill:#8B8992;" width="162.159" height="30.03"/>
	<rect x="175.922" y="285.781" style="fill:#8B8992;" width="162.159" height="30.03"/>
	<path style="fill:#8B8992;" d="M201.947,170.665c0-24.837,20.207-45.044,45.044-45.044H133.88
		c-24.837,0-45.044,20.207-45.044,45.044s20.207,45.044,45.044,45.044h113.111C222.154,215.709,201.947,195.502,201.947,170.665z"/>
</g>
<g>
	<rect x="257.002" y="235.732" style="fill:#57555C;" width="81.08" height="30.03"/>
	<rect x="257.002" y="285.781" style="fill:#57555C;" width="81.08" height="30.03"/>
</g>
<path style="fill:#FF4F19;" d="M256,411.813L5.754,207.946V512h500.492V207.946L256,411.813z"/>
<polygon style="fill:#E70020;" points="256,411.813 256,512 506.246,512 506.246,207.946 "/>
<g>
</g>
<g>
</g>
<g>
</g>
<g>
</g>
<g>
</g>
<g>
</g>
<g>
</g>
<g>
</g>
<g>
</g>
<g>
</g>
<g>
</g>
<g>
</g>
<g>
</g>
<g>
</g>
<g>
</g>
</svg>
